<svg id="visual" viewBox="0 0 540 960" width="540" height="960" xmlns="http://www.w3.org/2000/svg" xmlns:xlink="http://www.w3.org/1999/xlink" version="1.1"><rect x="0" y="0" width="540" height="960" fill="#001220"></rect><defs><linearGradient id="grad1_0" x1="0%" y1="0%" x2="100%" y2="100%"><stop offset="30%" stop-color="#fbae3c" stop-opacity="1"></stop><stop offset="70%" stop-color="#fbae3c" stop-opacity="1"></stop></linearGradient></defs><defs><linearGradient id="grad1_1" x1="0%" y1="0%" x2="100%" y2="100%"><stop offset="30%" stop-color="#fbae3c" stop-opacity="1"></stop><stop offset="70%" stop-color="#cc5867" stop-opacity="1"></stop></linearGradient></defs><defs><linearGradient id="grad1_2" x1="0%" y1="0%" x2="100%" y2="100%"><stop offset="30%" stop-color="#593762" stop-opacity="1"></stop><stop offset="70%" stop-color="#cc5867" stop-opacity="1"></stop></linearGradient></defs><defs><linearGradient id="grad1_3" x1="0%" y1="0%" x2="100%" y2="100%"><stop offset="30%" stop-color="#593762" stop-opacity="1"></stop><stop offset="70%" stop-color="#001220" stop-opacity="1"></stop></linearGradient></defs><defs><linearGradient id="grad2_0" x1="0%" y1="0%" x2="100%" y2="100%"><stop offset="30%" stop-color="#fbae3c" stop-opacity="1"></stop><stop offset="70%" stop-color="#fbae3c" stop-opacity="1"></stop></linearGradient></defs><defs><linearGradient id="grad2_1" x1="0%" y1="0%" x2="100%" y2="100%"><stop offset="30%" stop-color="#cc5867" stop-opacity="1"></stop><stop offset="70%" stop-color="#fbae3c" stop-opacity="1"></stop></linearGradient></defs><defs><linearGradient id="grad2_2" x1="0%" y1="0%" x2="100%" y2="100%"><stop offset="30%" stop-color="#cc5867" stop-opacity="1"></stop><stop offset="70%" stop-color="#593762" stop-opacity="1"></stop></linearGradient></defs><defs><linearGradient id="grad2_3" x1="0%" y1="0%" x2="100%" y2="100%"><stop offset="30%" stop-color="#001220" stop-opacity="1"></stop><stop offset="70%" stop-color="#593762" stop-opacity="1"></stop></linearGradient></defs><g transform="translate(540, 0)"><path d="M0 486C-43.6 435.9 -87.3 385.9 -153.8 371.4C-220.4 356.9 -310 378 -343.7 343.7C-377.3 309.3 -355.1 219.6 -369.6 153.1C-384 86.6 -435 43.3 -486 0L0 0Z" fill="#232745"></path><path d="M0 364.5C-32.7 327 -65.4 289.4 -115.4 278.5C-165.3 267.7 -232.5 283.5 -257.7 257.7C-283 232 -266.4 164.7 -277.2 114.8C-288 64.9 -326.2 32.5 -364.5 0L0 0Z" fill="#96446e"></path><path d="M0 243C-21.8 218 -43.6 192.9 -76.9 185.7C-110.2 178.5 -155 189 -171.8 171.8C-188.7 154.7 -177.6 109.8 -184.8 76.5C-192 43.3 -217.5 21.6 -243 0L0 0Z" fill="#f17c53"></path><path d="M0 121.5C-10.9 109 -21.8 96.5 -38.5 92.8C-55.1 89.2 -77.5 94.5 -85.9 85.9C-94.3 77.3 -88.8 54.9 -92.4 38.3C-96 21.6 -108.7 10.8 -121.5 0L0 0Z" fill="#fbae3c"></path></g><g transform="translate(0, 960)"><path d="M0 -486C53.7 -442 107.4 -398.1 150.8 -364C194.1 -329.9 227.1 -305.7 281.4 -281.4C335.7 -257.2 411.4 -232.9 449 -186C486.7 -139.1 486.3 -69.5 486 0L0 0Z" fill="#232745"></path><path d="M0 -364.5C40.3 -331.5 80.6 -298.6 113.1 -273C145.6 -247.4 170.3 -229.3 211.1 -211.1C251.8 -192.9 308.5 -174.7 336.8 -139.5C365 -104.3 364.7 -52.2 364.5 0L0 0Z" fill="#96446e"></path><path d="M0 -243C26.9 -221 53.7 -199 75.4 -182C97.1 -165 113.6 -152.8 140.7 -140.7C167.9 -128.6 205.7 -116.4 224.5 -93C243.3 -69.5 243.2 -34.8 243 0L0 0Z" fill="#f17c53"></path><path d="M0 -121.5C13.4 -110.5 26.9 -99.5 37.7 -91C48.5 -82.5 56.8 -76.4 70.4 -70.4C83.9 -64.3 102.8 -58.2 112.3 -46.5C121.7 -34.8 121.6 -17.4 121.5 0L0 0Z" fill="#fbae3c"></path></g></svg>