<svg id="visual" viewBox="0 0 960 540" width="960" height="540" xmlns="http://www.w3.org/2000/svg" xmlns:xlink="http://www.w3.org/1999/xlink" version="1.1"><rect x="0" y="0" width="960" height="540" fill="#2A303C"></rect><defs><linearGradient id="grad1_0" x1="43.8%" y1="0%" x2="100%" y2="100%"><stop offset="14.444444444444446%" stop-color="#93cef4" stop-opacity="1"></stop><stop offset="85.55555555555554%" stop-color="#93cef4" stop-opacity="1"></stop></linearGradient></defs><defs><linearGradient id="grad1_1" x1="43.8%" y1="0%" x2="100%" y2="100%"><stop offset="14.444444444444446%" stop-color="#93cef4" stop-opacity="1"></stop><stop offset="85.55555555555554%" stop-color="#7194b3" stop-opacity="1"></stop></linearGradient></defs><defs><linearGradient id="grad1_2" x1="43.8%" y1="0%" x2="100%" y2="100%"><stop offset="14.444444444444446%" stop-color="#4e5f75" stop-opacity="1"></stop><stop offset="85.55555555555554%" stop-color="#7194b3" stop-opacity="1"></stop></linearGradient></defs><defs><linearGradient id="grad1_3" x1="43.8%" y1="0%" x2="100%" y2="100%"><stop offset="14.444444444444446%" stop-color="#4e5f75" stop-opacity="1"></stop><stop offset="85.55555555555554%" stop-color="#2a303c" stop-opacity="1"></stop></linearGradient></defs><defs><linearGradient id="grad2_0" x1="0%" y1="0%" x2="56.3%" y2="100%"><stop offset="14.444444444444446%" stop-color="#93cef4" stop-opacity="1"></stop><stop offset="85.55555555555554%" stop-color="#93cef4" stop-opacity="1"></stop></linearGradient></defs><defs><linearGradient id="grad2_1" x1="0%" y1="0%" x2="56.3%" y2="100%"><stop offset="14.444444444444446%" stop-color="#7194b3" stop-opacity="1"></stop><stop offset="85.55555555555554%" stop-color="#93cef4" stop-opacity="1"></stop></linearGradient></defs><defs><linearGradient id="grad2_2" x1="0%" y1="0%" x2="56.3%" y2="100%"><stop offset="14.444444444444446%" stop-color="#7194b3" stop-opacity="1"></stop><stop offset="85.55555555555554%" stop-color="#4e5f75" stop-opacity="1"></stop></linearGradient></defs><defs><linearGradient id="grad2_3" x1="0%" y1="0%" x2="56.3%" y2="100%"><stop offset="14.444444444444446%" stop-color="#2a303c" stop-opacity="1"></stop><stop offset="85.55555555555554%" stop-color="#4e5f75" stop-opacity="1"></stop></linearGradient></defs><g transform="translate(960, 0)"><path d="M0 405C-40.9 370.1 -81.8 335.2 -132.8 320.6C-183.8 306 -244.8 311.7 -286.4 286.4C-328 261.1 -350.2 204.8 -366.8 151.9C-383.3 99 -394.2 49.5 -405 0L0 0Z" fill="#3c4758"></path><path d="M0 303.8C-30.7 277.6 -61.4 251.4 -99.6 240.4C-137.8 229.5 -183.6 233.8 -214.8 214.8C-246 195.8 -262.7 153.6 -275.1 113.9C-287.5 74.3 -295.6 37.1 -303.7 0L0 0Z" fill="#607994"></path><path d="M0 202.5C-20.5 185 -40.9 167.6 -66.4 160.3C-91.9 153 -122.4 155.8 -143.2 143.2C-164 130.5 -175.1 102.4 -183.4 76C-191.7 49.5 -197.1 24.8 -202.5 0L0 0Z" fill="#82b1d3"></path><path d="M0 101.3C-10.2 92.5 -20.5 83.8 -33.2 80.1C-45.9 76.5 -61.2 77.9 -71.6 71.6C-82 65.3 -87.6 51.2 -91.7 38C-95.8 24.8 -98.5 12.4 -101.2 0L0 0Z" fill="#93cef4"></path></g><g transform="translate(0, 540)"><path d="M0 -405C49.9 -391.4 99.7 -377.9 149.2 -360.3C198.8 -342.8 247.9 -321.2 286.4 -286.4C324.8 -251.5 352.5 -203.4 370.5 -153.5C388.5 -103.5 396.7 -51.8 405 0L0 0Z" fill="#3c4758"></path><path d="M0 -303.7C37.4 -293.6 74.8 -283.4 111.9 -270.2C149.1 -257.1 186 -240.9 214.8 -214.8C243.6 -188.7 264.4 -152.6 277.9 -115.1C291.3 -77.6 297.5 -38.8 303.8 0L0 0Z" fill="#607994"></path><path d="M0 -202.5C24.9 -195.7 49.9 -188.9 74.6 -180.2C99.4 -171.4 124 -160.6 143.2 -143.2C162.4 -125.8 176.2 -101.7 185.2 -76.7C194.2 -51.8 198.4 -25.9 202.5 0L0 0Z" fill="#82b1d3"></path><path d="M0 -101.2C12.5 -97.9 24.9 -94.5 37.3 -90.1C49.7 -85.7 62 -80.3 71.6 -71.6C81.2 -62.9 88.1 -50.9 92.6 -38.4C97.1 -25.9 99.2 -12.9 101.3 0L0 0Z" fill="#93cef4"></path></g></svg>