<svg id="visual" viewBox="0 0 675 900" width="675" height="900" xmlns="http://www.w3.org/2000/svg" xmlns:xlink="http://www.w3.org/1999/xlink" version="1.1"><rect x="0" y="0" width="675" height="900" fill="#001220"></rect><defs><linearGradient id="grad1_0" x1="0%" y1="0%" x2="100%" y2="100%"><stop offset="30%" stop-color="#fbae3c" stop-opacity="1"></stop><stop offset="70%" stop-color="#fbae3c" stop-opacity="1"></stop></linearGradient></defs><defs><linearGradient id="grad1_1" x1="0%" y1="0%" x2="100%" y2="100%"><stop offset="30%" stop-color="#fbae3c" stop-opacity="1"></stop><stop offset="70%" stop-color="#cc5867" stop-opacity="1"></stop></linearGradient></defs><defs><linearGradient id="grad1_2" x1="0%" y1="0%" x2="100%" y2="100%"><stop offset="30%" stop-color="#593762" stop-opacity="1"></stop><stop offset="70%" stop-color="#cc5867" stop-opacity="1"></stop></linearGradient></defs><defs><linearGradient id="grad1_3" x1="0%" y1="0%" x2="100%" y2="100%"><stop offset="30%" stop-color="#593762" stop-opacity="1"></stop><stop offset="70%" stop-color="#001220" stop-opacity="1"></stop></linearGradient></defs><defs><linearGradient id="grad2_0" x1="0%" y1="0%" x2="100%" y2="100%"><stop offset="30%" stop-color="#fbae3c" stop-opacity="1"></stop><stop offset="70%" stop-color="#fbae3c" stop-opacity="1"></stop></linearGradient></defs><defs><linearGradient id="grad2_1" x1="0%" y1="0%" x2="100%" y2="100%"><stop offset="30%" stop-color="#cc5867" stop-opacity="1"></stop><stop offset="70%" stop-color="#fbae3c" stop-opacity="1"></stop></linearGradient></defs><defs><linearGradient id="grad2_2" x1="0%" y1="0%" x2="100%" y2="100%"><stop offset="30%" stop-color="#cc5867" stop-opacity="1"></stop><stop offset="70%" stop-color="#593762" stop-opacity="1"></stop></linearGradient></defs><defs><linearGradient id="grad2_3" x1="0%" y1="0%" x2="100%" y2="100%"><stop offset="30%" stop-color="#001220" stop-opacity="1"></stop><stop offset="70%" stop-color="#593762" stop-opacity="1"></stop></linearGradient></defs><g transform="translate(675, 0)"><path d="M0 450C-44.2 406.4 -88.4 362.9 -143.1 345.5C-197.9 328.2 -263.1 337.1 -312.5 312.5C-361.9 288 -395.5 229.9 -415.7 172.2C-436 114.5 -443 57.3 -450 0L0 0Z" fill="#232745"></path><path d="M0 337.5C-33.1 304.8 -66.3 272.1 -107.3 259.1C-148.4 246.2 -197.4 252.8 -234.4 234.4C-271.5 216 -296.6 172.4 -311.8 129.2C-327 85.9 -332.3 43 -337.5 0L0 0Z" fill="#96446e"></path><path d="M0 225C-22.1 203.2 -44.2 181.4 -71.6 172.8C-98.9 164.1 -131.6 168.6 -156.3 156.3C-181 144 -197.7 114.9 -207.9 86.1C-218 57.3 -221.5 28.6 -225 0L0 0Z" fill="#f17c53"></path><path d="M0 112.5C-11 101.6 -22.1 90.7 -35.8 86.4C-49.5 82.1 -65.8 84.3 -78.1 78.1C-90.5 72 -98.9 57.5 -103.9 43.1C-109 28.6 -110.8 14.3 -112.5 0L0 0Z" fill="#fbae3c"></path></g><g transform="translate(0, 900)"><path d="M0 -450C45.6 -413.9 91.2 -377.8 150 -362.2C208.8 -346.5 280.9 -351.2 318.2 -318.2C355.5 -285.2 358 -214.3 374.2 -155C390.3 -95.7 420.2 -47.8 450 0L0 0Z" fill="#232745"></path><path d="M0 -337.5C34.2 -310.4 68.4 -283.4 112.5 -271.6C156.6 -259.9 210.7 -263.4 238.6 -238.6C266.6 -213.9 268.5 -160.7 280.6 -116.2C292.8 -71.7 315.1 -35.9 337.5 0L0 0Z" fill="#96446e"></path><path d="M0 -225C22.8 -207 45.6 -188.9 75 -181.1C104.4 -173.2 140.5 -175.6 159.1 -159.1C177.7 -142.6 179 -107.2 187.1 -77.5C195.2 -47.8 210.1 -23.9 225 0L0 0Z" fill="#f17c53"></path><path d="M0 -112.5C11.4 -103.5 22.8 -94.5 37.5 -90.5C52.2 -86.6 70.2 -87.8 79.5 -79.5C88.9 -71.3 89.5 -53.6 93.5 -38.7C97.6 -23.9 105 -12 112.5 0L0 0Z" fill="#fbae3c"></path></g></svg>