<svg id="visual" viewBox="0 0 1920 1080" width="1920" height="1080" xmlns="http://www.w3.org/2000/svg" xmlns:xlink="http://www.w3.org/1999/xlink" version="1.1"><rect x="0" y="0" width="1920" height="1080" fill="#001220"></rect><defs><linearGradient id="grad1_0" x1="43.8%" y1="0%" x2="100%" y2="100%"><stop offset="14.444444444444446%" stop-color="#fbae3c" stop-opacity="1"></stop><stop offset="85.55555555555554%" stop-color="#fbae3c" stop-opacity="1"></stop></linearGradient></defs><defs><linearGradient id="grad1_1" x1="43.8%" y1="0%" x2="100%" y2="100%"><stop offset="14.444444444444446%" stop-color="#fbae3c" stop-opacity="1"></stop><stop offset="85.55555555555554%" stop-color="#cc5867" stop-opacity="1"></stop></linearGradient></defs><defs><linearGradient id="grad1_2" x1="43.8%" y1="0%" x2="100%" y2="100%"><stop offset="14.444444444444446%" stop-color="#593762" stop-opacity="1"></stop><stop offset="85.55555555555554%" stop-color="#cc5867" stop-opacity="1"></stop></linearGradient></defs><defs><linearGradient id="grad1_3" x1="43.8%" y1="0%" x2="100%" y2="100%"><stop offset="14.444444444444446%" stop-color="#593762" stop-opacity="1"></stop><stop offset="85.55555555555554%" stop-color="#001220" stop-opacity="1"></stop></linearGradient></defs><defs><linearGradient id="grad2_0" x1="0%" y1="0%" x2="56.3%" y2="100%"><stop offset="14.444444444444446%" stop-color="#fbae3c" stop-opacity="1"></stop><stop offset="85.55555555555554%" stop-color="#fbae3c" stop-opacity="1"></stop></linearGradient></defs><defs><linearGradient id="grad2_1" x1="0%" y1="0%" x2="56.3%" y2="100%"><stop offset="14.444444444444446%" stop-color="#cc5867" stop-opacity="1"></stop><stop offset="85.55555555555554%" stop-color="#fbae3c" stop-opacity="1"></stop></linearGradient></defs><defs><linearGradient id="grad2_2" x1="0%" y1="0%" x2="56.3%" y2="100%"><stop offset="14.444444444444446%" stop-color="#cc5867" stop-opacity="1"></stop><stop offset="85.55555555555554%" stop-color="#593762" stop-opacity="1"></stop></linearGradient></defs><defs><linearGradient id="grad2_3" x1="0%" y1="0%" x2="56.3%" y2="100%"><stop offset="14.444444444444446%" stop-color="#001220" stop-opacity="1"></stop><stop offset="85.55555555555554%" stop-color="#593762" stop-opacity="1"></stop></linearGradient></defs><g transform="translate(1920, 0)"><path d="M0 702C-78.5 701.9 -157 701.8 -216.9 667.6C-276.9 633.5 -318.3 565.3 -376.8 518.6C-435.3 471.8 -510.9 446.5 -540.4 392.6C-569.9 338.7 -553.3 256.2 -572.5 186C-591.8 115.8 -646.9 57.9 -702 0L0 0Z" fill="#232745"></path><path d="M0 526.5C-58.9 526.4 -117.7 526.3 -162.7 500.7C-207.7 475.1 -238.7 424 -282.6 388.9C-326.5 353.9 -383.2 334.9 -405.3 294.5C-427.4 254.1 -415 192.2 -429.4 139.5C-443.8 86.9 -485.2 43.4 -526.5 0L0 0Z" fill="#96446e"></path><path d="M0 351C-39.2 350.9 -78.5 350.9 -108.5 333.8C-138.4 316.7 -159.1 282.7 -188.4 259.3C-217.6 235.9 -255.5 223.3 -270.2 196.3C-285 169.4 -276.6 128.1 -286.3 93C-295.9 57.9 -323.4 29 -351 0L0 0Z" fill="#f17c53"></path><path d="M0 175.5C-19.6 175.5 -39.2 175.4 -54.2 166.9C-69.2 158.4 -79.6 141.3 -94.2 129.6C-108.8 118 -127.7 111.6 -135.1 98.2C-142.5 84.7 -138.3 64.1 -143.1 46.5C-147.9 29 -161.7 14.5 -175.5 0L0 0Z" fill="#fbae3c"></path></g><g transform="translate(0, 1080)"><path d="M0 -702C79 -703.9 158.1 -705.8 216.9 -667.6C275.8 -629.5 314.4 -551.2 360.3 -495.9C406.2 -440.7 459.4 -408.4 498.4 -362.1C537.3 -315.8 561.9 -255.5 593.5 -192.8C625 -130.1 663.5 -65.1 702 0L0 0Z" fill="#232745"></path><path d="M0 -526.5C59.3 -527.9 118.6 -529.4 162.7 -500.7C206.8 -472.1 235.8 -413.4 270.2 -371.9C304.7 -330.5 344.6 -306.3 373.8 -271.6C403 -236.8 421.4 -191.6 445.1 -144.6C468.8 -97.6 497.6 -48.8 526.5 0L0 0Z" fill="#96446e"></path><path d="M0 -351C39.5 -352 79 -352.9 108.5 -333.8C137.9 -314.7 157.2 -275.6 180.2 -248C203.1 -220.3 229.7 -204.2 249.2 -181C268.6 -157.9 280.9 -127.8 296.7 -96.4C312.5 -65.1 331.8 -32.5 351 0L0 0Z" fill="#f17c53"></path><path d="M0 -175.5C19.8 -176 39.5 -176.5 54.2 -166.9C68.9 -157.4 78.6 -137.8 90.1 -124C101.6 -110.2 114.9 -102.1 124.6 -90.5C134.3 -78.9 140.5 -63.9 148.4 -48.2C156.3 -32.5 165.9 -16.3 175.5 0L0 0Z" fill="#fbae3c"></path></g></svg>